<?xml version="1.0" standalone="no"?><!DOCTYPE svg PUBLIC "-//W3C//DTD SVG 1.1//EN" "http://www.w3.org/Graphics/SVG/1.1/DTD/svg11.dtd"><svg t="1480925350222" class="icon" style="" viewBox="0 0 1024 1024" version="1.1" xmlns="http://www.w3.org/2000/svg" p-id="9515" xmlns:xlink="http://www.w3.org/1999/xlink" width="48" height="48"><defs><style type="text/css"></style></defs><path d="M513.024 416.831488m-127.224832 0a124.243 124.243 0 1 0 254.449664 0 124.243 124.243 0 1 0-254.449664 0Z" p-id="9516"></path><path d="M513.024 51.639296c-201.690112 0-365.193216 163.50208-365.193216 365.193216 0 25.631744 4.34688 113.905664 81.733632 216.507392C302.09024 729.495552 513.024 972.360704 513.024 972.360704s210.93376-242.865152 283.45856-339.021824c77.386752-102.601728 81.733632-190.875648 81.733632-216.507392C878.217216 215.141376 714.714112 51.639296 513.024 51.639296zM513.024 661.08416c-134.89664 0-244.252672-109.356032-244.252672-244.252672S378.12736 172.57984 513.024 172.57984s244.252672 109.356032 244.252672 244.252672S647.92064 661.08416 513.024 661.08416z" p-id="9517"></path></svg>