<?xml version="1.0" standalone="no"?><!DOCTYPE svg PUBLIC "-//W3C//DTD SVG 1.1//EN" "http://www.w3.org/Graphics/SVG/1.1/DTD/svg11.dtd"><svg t="1484488948229" class="icon" style="" viewBox="0 0 1024 1024" version="1.1" xmlns="http://www.w3.org/2000/svg" p-id="999" xmlns:xlink="http://www.w3.org/1999/xlink" width="48" height="48"><defs><style type="text/css"></style></defs><path d="M565.0208 993.12l-109.2256 0c-15.0816 0-27.3056-12.2256-27.3056-27.3056L428.4896 337.7584c0-15.0816 12.224-27.3072 27.3056-27.3072l109.2256 0c15.08 0 27.3056 12.2256 27.3056 27.3072l0 628.056C592.3264 980.8944 580.1008 993.12 565.0208 993.12L565.0208 993.12zM565.0208 993.12" p-id="1000" fill="#d81e06"></path><path d="M533.1456 44.1632l276.6432 414.9824c12.0944 18.1488-0.912 42.456-22.7184 42.456L233.752 501.6016c-21.8064 0-34.8192-24.3072-22.7184-42.456L487.7072 44.1632C498.5136 27.9456 522.3328 27.9456 533.1456 44.1632L533.1456 44.1632zM533.1456 44.1632" p-id="1001" fill="#d81e06"></path></svg>