<?xml version="1.0" standalone="no"?><!DOCTYPE svg PUBLIC "-//W3C//DTD SVG 1.1//EN" "http://www.w3.org/Graphics/SVG/1.1/DTD/svg11.dtd"><svg t="1480925388448" class="icon" style="" viewBox="0 0 1063 1024" version="1.1" xmlns="http://www.w3.org/2000/svg" p-id="10284" xmlns:xlink="http://www.w3.org/1999/xlink" width="49.828125" height="48"><defs><style type="text/css"></style></defs><path d="M996.363636 912.484848 797.090909 912.484848l0-66.424242 33.212768 0c18.342788 0 33.212768-14.86998 33.212768-33.212768S848.645172 779.636364 830.303677 779.636364l-132.848485 0c-18.342788 0-33.212768 14.86998-33.212768 33.212768s14.86998 33.212768 33.212768 33.212768l33.212768 0 0 66.424242-398.545455 0 0-66.424242 33.212768 0c18.341495 0 33.212768-14.86998 33.212768-33.212768S383.674182 779.636364 365.33398 779.636364L232.485495 779.636364c-18.341495 0-33.212768 14.86998-33.212768 33.212768s14.86998 33.212768 33.212768 33.212768L265.69697 846.061899l0 66.424242L66.424242 912.486141c-36.69204 0-66.424242-29.741253-66.424242-66.424242l0-664.242424c0-36.684283 29.732202-66.424242 66.424242-66.424242l929.939394 0c36.684283 0 66.424242 29.73996 66.424242 66.424242l0 664.242424C1062.787879 882.743596 1033.047919 912.484848 996.363636 912.484848zM664.242424 713.228929l66.424242 0L730.666667 646.787879 664.242424 646.787879 664.242424 713.228929zM664.242424 447.515152 797.090909 447.515152 797.090909 381.090909 664.242424 381.090909 664.242424 447.515152zM597.818182 248.260525 132.848485 248.260525l0 464.968404 464.969697 0L597.818182 248.260525zM863.515152 248.260525 664.242424 248.260525l0 66.424242 199.272727 0L863.515152 248.260525zM996.363636 248.260525 929.939394 248.260525l0 66.424242 66.424242 0L996.363636 248.260525zM996.363636 381.090909l-132.848485 0 0 66.424242 132.848485 0L996.363636 381.090909zM996.363636 513.956202 664.242424 513.956202l0 66.425535 332.121212 0L996.363636 513.956202zM332.121212 584.37301l0-10.701576C293.612606 559.892687 265.69697 523.97899 265.69697 480.744727l0-66.442343c0-55.025778 44.602182-99.617616 99.63701-99.617616 55.025778 0 99.63701 44.593131 99.63701 99.617616l0 66.442343c0 43.23297-27.915636 79.14796-66.424242 92.925414l0 10.701576c40.128646 8.338101 74.987313 30.796283 98.884525 62.414869L398.545455 646.786586l-66.424242 0L233.236687 646.786586C257.124848 615.169293 291.984808 592.711111 332.121212 584.37301z" p-id="10285"></path></svg>