<?xml version="1.0" standalone="no"?><!DOCTYPE svg PUBLIC "-//W3C//DTD SVG 1.1//EN" "http://www.w3.org/Graphics/SVG/1.1/DTD/svg11.dtd"><svg t="1486301380807" class="icon" style="" viewBox="0 0 1217 1024" version="1.1" xmlns="http://www.w3.org/2000/svg" p-id="2502" xmlns:xlink="http://www.w3.org/1999/xlink" width="57.046875" height="48"><defs><style type="text/css"></style></defs><path d="M602.139 443.334c-60.758 0-110.104 49.234-110.104 109.864 0 7.777 6.233 13.478 14.030 13.478 7.786 0 14.020-6.223 14.020-13.478 0-45.608 36.878-82.396 82.575-82.396 7.797 0 14.020-6.222 14.020-13.478-0.512-7.767-6.743-13.99-14.541-13.99zM602.139 333.471c-122.049 0-220.718 98.46-220.718 219.727 0 121.268 98.67 219.727 220.718 219.727 122.049 0 220.729-98.46 220.729-219.727 0-121.268-98.68-219.727-220.729-219.727zM727.827 660.466c-59.206 68.927-163.597 77.224-233.185 17.628-69.076-59.076-77.384-163.246-17.657-232.164 59.206-68.927 163.588-77.214 233.185-17.618 69.077 59.076 77.385 163.238 17.657 232.154zM974.52 307.045l-63.365-10.362c-34.794-5.703-63.876-29.542-77.385-62.193l-16.615-41.458c-12.466-31.607-42.59-51.819-76.863-51.819h-275.776c-33.761 0-63.886 20.214-76.863 51.819l-16.626 41.458c-13.778 33.705-44.264 57.996-80.881 62.722l-59.858 9.832c-39.995 6.734-69.077 40.938-69.077 81.362v411.986c0 45.597 36.878 82.396 82.575 82.396h716.715c45.697 0 82.576-36.799 82.576-82.396v-411.986c0.512-40.426-28.57-74.628-68.556-81.363zM805.733 405.503c0.521 0.521 1.553 2.074 2.595 4.148-1.043-1.553-2.075-3.107-3.637-4.67l1.043 0.521zM582.406 299.789c0 0.521 0 1.032 0.521 1.553h-2.595c1.276-0.648 2.307-1.617 3.010-2.806zM602.139 795.212c-22.848 0-44.664-3.628-65.438-9.33-17.657-6.734-37.911-15.033-57.642-25.393-70.119-42.49-116.858-119.193-116.858-207.291 0-73.585 32.72-138.886 84.139-183.45 8.308-6.223 17.136-12.958 24.923-19.171 37.92-24.883 82.586-39.383 130.879-39.383 132.442 0 239.941 108.301 239.941 242.005s-107.498 242.016-239.941 242.016z" fill="#d81e06" p-id="2503"></path></svg>