<?xml version="1.0" standalone="no"?><!DOCTYPE svg PUBLIC "-//W3C//DTD SVG 1.1//EN" "http://www.w3.org/Graphics/SVG/1.1/DTD/svg11.dtd"><svg t="1480925457292" class="icon" style="" viewBox="0 0 1024 1024" version="1.1" xmlns="http://www.w3.org/2000/svg" p-id="11053" xmlns:xlink="http://www.w3.org/1999/xlink" width="48" height="48"><defs><style type="text/css"></style></defs><path d="M681.603793 585.29533l103.807251 0c13.369495 0 24.190959-10.821463 24.190959-24.191982L809.602002 492.684072c-0.001023-13.369495-10.822486-24.190959-24.190959-24.190959L681.603793 468.493114c-13.369495 0-24.190959 10.82044-24.190959 24.190959l0 68.420299C657.412834 574.47489 668.227134 585.29533 681.603793 585.29533z" p-id="11054"></path><path d="M794.752806 248.852718 794.752806 248.852718c0 1.688455-0.086981 3.359514-0.254803 5.006014C794.665825 252.212232 794.752806 250.542196 794.752806 248.852718z" p-id="11055"></path><path d="M460.083583 786.390347l103.81953 0c13.376659 0 24.190959-10.82044 24.190959-24.197098l0-68.414159c0-13.376659-10.8143-24.191982-24.190959-24.191982L460.083583 669.587108c-13.368472 0-24.187889 10.815323-24.187889 24.191982l0 68.414159C435.895695 775.569908 446.715111 786.390347 460.083583 786.390347z" p-id="11056"></path><path d="M238.572584 786.390347 342.402347 786.390347c13.370519 0 24.190959-10.82044 24.190959-24.197098l0-68.414159c0-13.376659-10.82044-24.191982-24.191982-24.191982L238.572584 669.587108c-13.370519 0-24.190959 10.815323-24.190959 24.191982l0 68.414159C214.381625 775.569908 225.202065 786.390347 238.572584 786.390347z" p-id="11057"></path><path d="M238.572584 585.29533 342.402347 585.29533c13.370519 0 24.190959-10.821463 24.190959-24.191982L366.593306 492.684072c0-13.369495-10.82044-24.190959-24.191982-24.190959L238.572584 468.493114c-13.370519 0-24.190959 10.82044-24.190959 24.190959l0 68.420299C214.381625 574.47489 225.202065 585.29533 238.572584 585.29533z" p-id="11058"></path><path d="M681.603793 786.390347l103.807251 0c13.369495 0 24.190959-10.82044 24.190959-24.197098l0-68.414159c-0.001023-13.376659-10.822486-24.191982-24.190959-24.191982L681.603793 669.587108c-13.369495 0-24.190959 10.815323-24.190959 24.191982l0 68.414159C657.412834 775.569908 668.227134 786.390347 681.603793 786.390347z" p-id="11059"></path><path d="M460.083583 585.29533l103.81953 0c13.376659 0 24.190959-10.821463 24.190959-24.191982L588.094072 492.684072c0-13.369495-10.8143-24.190959-24.190959-24.190959L460.083583 468.493114c-13.368472 0-24.187889 10.82044-24.187889 24.190959l0 68.420299C435.895695 574.47489 446.715111 585.29533 460.083583 585.29533z" p-id="11060"></path><path d="M277.508361 297.994951c27.028587 0 49.142234-22.113647 49.142234-49.142234l0 0L326.650595 103.710037c0-27.028587-22.11467-49.142234-49.142234-49.142234-27.028587 0-49.142234 22.113647-49.142234 49.142234l0 145.142681C228.366128 275.881304 250.479775 297.994951 277.508361 297.994951z" p-id="11061"></path><path d="M745.609549 297.994951c27.028587 0 49.142234-22.113647 49.142234-49.142234L794.751782 103.710037c0-27.028587-22.113647-49.142234-49.142234-49.142234s-49.142234 22.113647-49.142234 49.142234l0 145.142681 0 0C696.467315 275.881304 718.581985 297.994951 745.609549 297.994951z" p-id="11062"></path><path d="M877.121791 142.851499 824.737724 142.851499l0 106.001219c0 43.630706-35.496445 79.128175-79.128175 79.128175s-79.127152-35.496445-79.127152-79.128175L666.482397 142.851499l-309.846884 0 0 106.000196c0 43.630706-35.496445 79.128175-79.127152 79.128175s-79.127152-35.496445-79.127152-79.128175L198.38121 142.851499l-51.503001 0c-45.99352 0-83.415828 37.411051-83.415828 83.400478L63.462381 886.032742c0 45.994544 37.422308 83.399455 83.415828 83.399455l730.243583 0c45.99352 0 83.415828-37.404911 83.415828-83.399455L960.537619 226.250954C960.537619 180.261527 923.114289 142.851499 877.121791 142.851499zM887.965767 886.031718c-0.001023 5.969968-4.868891 10.82658-10.843976 10.82658L146.884348 896.858298c-5.975085 0-10.843976-4.856611-10.843976-10.82658L136.040373 362.604458l751.925395 0L887.965767 886.031718z" p-id="11063"></path></svg>