<?xml version="1.0" standalone="no"?><!DOCTYPE svg PUBLIC "-//W3C//DTD SVG 1.1//EN" "http://www.w3.org/Graphics/SVG/1.1/DTD/svg11.dtd"><svg t="1484489061545" class="icon" style="" viewBox="0 0 1024 1024" version="1.1" xmlns="http://www.w3.org/2000/svg" p-id="4067" xmlns:xlink="http://www.w3.org/1999/xlink" width="48" height="48"><defs><style type="text/css"></style></defs><path d="M455.7984 32l109.2256 0c15.0816 0 27.3056 12.2256 27.3056 27.3056l0 628.056c0 15.0816-12.224 27.3072-27.3056 27.3072l-109.2256 0c-15.08 0-27.3056-12.2256-27.3056-27.3072L428.4928 59.3056C428.4928 44.2256 440.7184 32 455.7984 32L455.7984 32zM455.7984 32" p-id="4068" fill="#1afa29"></path><path d="M487.6736 980.9568 211.0304 565.9744c-12.0944-18.1488 0.912-42.456 22.7184-42.456l553.3184 0c21.8064 0 34.8192 24.3072 22.7184 42.456L533.112 980.9568C522.3056 997.1744 498.4864 997.1744 487.6736 980.9568L487.6736 980.9568zM487.6736 980.9568" p-id="4069" fill="#1afa29"></path></svg>