<?xml version="1.0" standalone="no"?><!DOCTYPE svg PUBLIC "-//W3C//DTD SVG 1.1//EN" "http://www.w3.org/Graphics/SVG/1.1/DTD/svg11.dtd"><svg t="1486391358405" class="icon" style="" viewBox="0 0 1024 1024" version="1.1" xmlns="http://www.w3.org/2000/svg" p-id="19685" xmlns:xlink="http://www.w3.org/1999/xlink" width="64" height="64"><defs><style type="text/css"></style></defs><path d="M127.941927 959.469288 127.941927 127.981836 575.667042 127.981836 575.667042 183.240371 183.200462 183.240371 183.200462 850.991668 308.584124 767.588119 840.211137 768.611425 840.211137 383.823736 895.469672 383.823736 895.469672 831.033104 324.957023 831.033104Z" p-id="19686" fill="#999999"></path><path d="M860.101139 311.73386 694.225251 145.857972l18.501376-19.523659c0.319272-0.337691 32.222889-33.994232 51.336202-53.585429 19.747763-20.240997 40.615023-24.490787 54.643528-24.490787 27.582195 0 47.679929 16.07307 50.052976 18.055215 1.983167 1.651616 31.112602 26.102495 68.886927 67.87897 19.774369 21.8701 22.657023 43.156916 21.592784 57.163931-2.238994 29.469172-22.912849 49.15963-28.191062 53.733808L860.101139 311.73386zM771.373329 144.859225l89.930195 89.930195 33.392528-31.365358 0.36225-0.268106c2.419096-2.172479 8.667404-9.198499 9.094122-16.174378 0.283456-4.623297-2.238994-9.914814-7.493671-15.727193-34.037211-37.644365-60.801784-60.405765-63.12162-62.36028-2.050706-1.565658-8.41874-5.376451-14.830777-5.376451-3.202948 0-8.251941 0.810459-15.090697 7.820106C794.226826 120.961956 781.656533 134.080741 771.373329 144.859225z" p-id="19687" fill="#999999"></path><path d="M580.01507 604.321662 412.977729 437.283298 668.820652 170.113399 707.779965 209.30091 489.193575 434.32799 577.998133 526.202467 796.742113 298.119795 835.786361 337.222371Z" p-id="19688" fill="#999999"></path><path d="M314.526463 703.627389 396.313188 464.120526 437.237249 505.981936 393.216663 627.103528 515.727904 584.577992 556.589544 623.415532Z" p-id="19689" fill="#999999"></path></svg>