<?xml version="1.0" standalone="no"?><!DOCTYPE svg PUBLIC "-//W3C//DTD SVG 1.1//EN" "http://www.w3.org/Graphics/SVG/1.1/DTD/svg11.dtd"><svg t="1486389660865" class="icon" style="" viewBox="0 0 1024 1024" version="1.1" xmlns="http://www.w3.org/2000/svg" p-id="18847" xmlns:xlink="http://www.w3.org/1999/xlink" width="64" height="64"><defs><style type="text/css"></style></defs><path d="M85.727477 780.741697c-6.470365-6.470365-10.460236-15.47239-10.491958-25.387203l0-99.063203c22.666232-7.735172 44.089148-19.995403 62.156642-38.062897 63.052035-63.051011 63.051011-165.31307-0.024559-228.389664-18.073634-18.073634-39.49041-30.342052-62.131059-38.087457l0.001023-98.812493c-0.001023-19.791765 16.067954-35.860742 35.886325-35.886325l438.706717 0.010233 44.291762-71.762417-483.023038 0.00307C51.770084 145.304364 3.462868 193.611579 3.461845 252.939803l0.025583 98.836029c-0.025583 19.462261 7.847735 37.58706 21.017686 50.757011 7.599072 7.599072 16.942881 13.544481 27.595498 17.191544 13.740956 4.643764 25.338085 11.697413 34.511002 20.87033 34.986839 34.985816 35.010375 91.89085 0.023536 126.875642-9.172917 9.17394-20.793582 16.189727-34.540677 20.840654-29.067013 9.920954-48.63058 37.238113-48.63058 67.979254l0.00614 99.05911c-0.008186 28.79379 11.221576 55.806004 31.534204 76.117608 20.345374 20.346397 47.356564 31.574113 76.119655 31.535227l40.029692 0 44.291762-71.761394-84.321454 0.001023C101.232612 791.234679 92.223425 787.238668 85.727477 780.741697z" p-id="18848" fill="#999999"></path><path d="M959.153086 588.514651c-14.040784-4.702092-25.857924-11.775184-35.133172-21.049409-34.985816-34.986839-34.990932-91.908246-0.023536-126.875642 9.293667-9.293667 21.110807-16.366759 35.137265-21.042245 29.359678-9.770528 49.125861-37.186947 49.151443-68.094888l-0.025583-98.492198c0-28.738531-11.190877-55.775304-31.535227-76.119655-20.317745-20.317745-47.329958-31.534204-76.125795-31.540344L867.951945 145.30027l-44.708248 71.770604 77.355809 0.002047c9.948583 0 18.924002 4.028757 25.394367 10.499122 6.496971 6.496971 10.525728 15.47239 10.492982 25.388227l0.033769 98.486058c-23.069415 7.676843-44.915979 20.022009-63.280232 38.386262-63.058175 63.057151-63.051011 165.31307 0.024559 228.389664 18.345834 18.345834 40.154535 30.715559 63.228043 38.386262l-0.007163 98.764398c0 19.793812-16.068977 35.861766-35.860742 35.861766l-435.04942 0.004093-44.705178 71.765487 479.753575 0.004093c59.3272 0.001023 107.637486-48.307216 107.635439-107.635439l0-98.759281c0.005117-19.495006-7.864108-37.618782-21.036106-50.788733C979.529159 598.129636 969.980689 592.084966 959.153086 588.514651z" p-id="18849" fill="#999999"></path><path d="M790.844799 93.311199c-19.859303-12.898775-46.412053-7.259334-59.311851 12.597923L234.278791 871.375927c-12.899798 19.857257-7.259334 46.412053 12.597923 59.311851 7.213285 4.684696 15.310707 6.925736 23.316032 6.925736 14.032598 0 27.78174-6.880711 35.994796-19.524682l497.255181-765.465782C816.34252 132.765793 810.702056 106.210997 790.844799 93.311199z" p-id="18850" fill="#999999"></path></svg>