<?xml version="1.0" standalone="no"?><!DOCTYPE svg PUBLIC "-//W3C//DTD SVG 1.1//EN" "http://www.w3.org/Graphics/SVG/1.1/DTD/svg11.dtd"><svg t="1480926562964" class="icon" style="" viewBox="0 0 1024 1024" version="1.1" xmlns="http://www.w3.org/2000/svg" p-id="14328" xmlns:xlink="http://www.w3.org/1999/xlink" width="48" height="48"><defs><style type="text/css"></style></defs><path d="M512 947.2c-5.12 0-10.24-2.56-15.36-5.12C478.72 934.4 25.6 704 25.6 355.84 25.6 202.24 151.04 76.8 304.64 76.8c79.36 0 153.6 33.28 207.36 92.16C565.76 110.08 640 76.8 719.36 76.8 872.96 76.8 998.4 202.24 998.4 355.84c0 345.6-453.12 578.56-471.04 586.24C522.24 944.64 517.12 947.2 512 947.2L512 947.2zM304.64 140.8c-120.32 0-217.6 97.28-217.6 217.6 0 276.48 348.16 481.28 422.4 522.24 74.24-40.96 422.4-248.32 422.4-522.24 0-120.32-97.28-217.6-217.6-217.6-74.24 0-140.8 35.84-179.2 97.28-12.8 17.92-40.96 17.92-53.76 0C445.44 176.64 378.88 140.8 304.64 140.8L304.64 140.8zM304.64 140.8" p-id="14329"></path></svg>