<?xml version="1.0" standalone="no"?><!DOCTYPE svg PUBLIC "-//W3C//DTD SVG 1.1//EN" "http://www.w3.org/Graphics/SVG/1.1/DTD/svg11.dtd"><svg t="1487076572388" class="icon" style="" viewBox="0 0 1024 1024" version="1.1" xmlns="http://www.w3.org/2000/svg" p-id="2059" xmlns:xlink="http://www.w3.org/1999/xlink" width="48" height="48"><defs><style type="text/css"></style></defs><path d="M680.130063 333.137759l-87.560556-87.560556c-0.794549-1.009048-1.649521-1.987884-2.582034-2.91939-12.260633-12.260633-31.757808-12.644313-43.546143-0.854971l-0.469278 0.469278c-0.189322 0.180259-0.382673 0.355483-0.567967 0.541784s-0.360518 0.378645-0.541784 0.567967l-88.888833 88.888833c-11.789341 11.789341-11.406668 31.28551 0.854971 43.546143s31.757808 12.644313 43.546143 0.854971l37.462653-37.462653 0 178.079776c0 16.686545 13.527481 30.214026 30.214026 30.214026s30.214026-13.527481 30.214026-30.214026L598.265289 340.07622l37.462653 37.462653c11.789341 11.789341 31.28551 11.406668 43.546143-0.854971C691.536732 364.423269 691.919405 344.9271 680.130063 333.137759z" p-id="2060" fill="#ACE046"></path><path d="M894.092457 629.747392c-2.301072 0-4.636382-0.26485-6.973707-0.816704-16.237408-3.837805-26.289617-20.111466-22.453826-36.349881l81.548566-345.10031c2.215474-10.407691-0.043302-19.885891-6.716913-28.174783-9.354334-11.618145-25.463849-18.554592-43.092978-18.554592L752.970811 200.751121c-16.684531 0-30.211005-13.526474-30.211005-30.211005s13.526474-30.211005 30.211005-30.211005l143.433795 0c35.740626 0 69.444023 15.358268 90.156688 41.083946 18.226299 22.638113 24.845531 50.756502 18.637169 79.173981-0.036253 0.167168-0.073513 0.333328-0.112788 0.499489l-81.617044 345.390336C920.182681 620.377952 907.781063 629.747392 894.092457 629.747392zM383.390523 200.751121 178.061428 200.751121c-16.684531 0-30.211005-13.526474-30.211005-30.211005s13.526474-30.211005 30.211005-30.211005l205.329095 0c16.685538 0 30.211005 13.526474 30.211005 30.211005S400.076061 200.751121 383.390523 200.751121z" p-id="2061" fill="#ACE046"></path><path d="M261.739869 695.56408c-14.296855 0-27.000582-10.188158-29.678284-24.752883l-98.292512-534.55755c-7.728982-34.438532-37.016537-59.384765-69.804541-59.384765L31.934825 76.868881c-16.684531 0-30.211005-13.526474-30.211005-30.211005s13.526474-30.211005 30.211005-30.211005l32.0287 0c61.119884 0 115.34461 45.152361 128.934527 107.362862 0.071499 0.327286 0.137964 0.654572 0.198386 0.984879l98.390194 535.090271c3.017072 16.410618-7.839756 32.159615-24.249367 35.177694C265.391373 695.400941 263.551523 695.56408 261.739869 695.56408z" p-id="2062" fill="#ACE046"></path><path d="M348.64686 1023.155099c-51.734332 0-93.82229-42.088965-93.82229-93.82229s42.087958-93.82229 93.82229-93.82229c51.733325 0 93.82229 42.088965 93.82229 93.82229S400.380185 1023.155099 348.64686 1023.155099zM348.64686 895.932529c-18.417636 0-33.40028 14.983651-33.40028 33.40028s14.982644 33.40028 33.40028 33.40028c18.416629 0 33.40028-14.983651 33.40028-33.40028S367.063489 895.932529 348.64686 895.932529z" p-id="2063" fill="#ACE046"></path><path d="M789.49793 1023.155099c-51.733325 0-93.82229-42.088965-93.82229-93.82229s42.088965-93.82229 93.82229-93.82229 93.821283 42.088965 93.821283 93.82229S841.231255 1023.155099 789.49793 1023.155099zM789.49793 895.932529c-18.416629 0-33.40028 14.983651-33.40028 33.40028s14.983651 33.40028 33.40028 33.40028 33.399273-14.983651 33.399273-33.40028S807.914558 895.932529 789.49793 895.932529z" p-id="2064" fill="#ACE046"></path><path d="M788.09916 895.597187 282.838228 895.597187c-68.757226 0-124.694916-55.93769-124.694916-124.694916s55.93769-124.694916 124.694916-124.694916l348.281529 0c16.684531 0 30.211005 13.526474 30.211005 30.211005s-13.526474 30.211005-30.211005 30.211005L282.838228 706.629364c-35.44053 0-64.272906 28.833383-64.272906 64.272906s28.832376 64.272906 64.272906 64.272906l505.260932 0c16.684531 0 30.211005 13.526474 30.211005 30.211005S804.783691 895.597187 788.09916 895.597187z" p-id="2065" fill="#ACE046"></path><path d="M804.718234 706.629364 528.947145 706.629364c-16.684531 0-30.211005-13.526474-30.211005-30.211005s13.526474-30.211005 30.211005-30.211005l275.771089 0c22.376284 0 49.582301-6.81661 61.450191-59.970859 3.634384-16.283732 19.78418-26.537347 36.067912-22.901956 16.283732 3.635391 26.538354 19.78418 22.901956 36.067912C909.700469 668.548393 866.934778 706.629364 804.718234 706.629364z" p-id="2066" fill="#ACE046"></path></svg>