<?xml version="1.0" standalone="no"?><!DOCTYPE svg PUBLIC "-//W3C//DTD SVG 1.1//EN" "http://www.w3.org/Graphics/SVG/1.1/DTD/svg11.dtd"><svg t="1486539204451" class="icon" style="" viewBox="0 0 1024 1024" version="1.1" xmlns="http://www.w3.org/2000/svg" p-id="9742" xmlns:xlink="http://www.w3.org/1999/xlink" width="64" height="64"><defs><style type="text/css"></style></defs><path d="M343.438956 543.312146c-0.583285 0.74292-1.165546 1.524726-1.427512 2.465145l-45.001937 164.991752c-2.62478 9.605775 0.064468 19.956517 7.1744 27.253714 5.319146 5.196349 12.32777 8.051373 19.790742 8.051373 2.465145 0 4.935406-0.294712 7.366781-0.941442l163.820066-44.680619c0.26299 0 0.38988 0.230244 0.588401 0.230244 1.88186 0 3.730974-0.684592 5.126764-2.112104l438.059987-437.996542c13.012362-13.028735 20.147876-30.776957 20.147876-50.086745 0-21.880333-9.280364-43.751457-25.53149-59.959603l-41.371246-41.436738c-16.225543-16.251126-38.127366-25.547863-59.997466-25.547863-19.304671 0-37.051871 7.136537-50.096978 20.132526L344.090802 541.789467C343.636454 542.206976 343.764368 542.826076 343.438956 543.312146M896.072399 217.677695l-43.51098 43.479257-70.53752-71.657017 42.894949-42.895973c6.77838-6.815219 19.919678-5.820566 27.708062 1.994424l41.398876 41.436738c4.320399 4.313236 6.783497 10.055007 6.783497 15.733333C900.782677 210.422454 899.124921 214.645638 896.072399 217.677695M421.345304 550.193881l316.097238-316.115658 70.572312 71.705112L492.504994 621.277846 421.345304 550.193881 421.345304 550.193881zM363.753631 678.355819l22.842241-83.844593 60.931744 60.937884L363.753631 678.355819 363.753631 678.355819zM923.818323 391.247822c-16.582677 0-30.178323 13.483082-30.242791 30.289863l0 408.358525c0 21.414729-17.390066 38.805818-38.838563 38.805818L163.949003 868.702028c-21.414729 0-38.875402-17.390066-38.875402-38.805818L125.0736 163.379021c0-21.431102 17.45965-38.84368 38.875402-38.84368l444.908976 0c16.674775 0 30.204929-13.540388 30.204929-30.220279 0-16.647145-13.531178-30.209022-30.204929-30.209022L159.341055 64.10604c-52.208059 0-94.696756 42.457997-94.696756 94.696756l0 675.703409c0 52.240805 42.48972 94.680383 94.696756 94.680383l699.967022 0c52.245921 0 94.713128-42.440601 94.713128-94.680383l0-413.159878C953.957761 404.730904 940.395884 391.247822 923.818323 391.247822" p-id="9743" fill="#ACE046"></path></svg>