<?xml version="1.0" standalone="no"?><!DOCTYPE svg PUBLIC "-//W3C//DTD SVG 1.1//EN" "http://www.w3.org/Graphics/SVG/1.1/DTD/svg11.dtd"><svg t="1480923723596" class="icon" style="" viewBox="0 0 1024 1024" version="1.1" xmlns="http://www.w3.org/2000/svg" p-id="2576" xmlns:xlink="http://www.w3.org/1999/xlink" width="200" height="200"><defs><style type="text/css"></style></defs><path d="M825.473993 80.676437 707.634144 80.676437 575.203996 328.114946c-35.3276 67.055209-56.879452 111.693872-64.799842 133.725654l-2.303462 0c-23.281239-53.710272-88.991824-180.717921-197.231013-381.164163L186.310801 80.676437l231.645824 403.483494L228.022809 484.159932l0 89.184205L450.644095 573.344137l0 122.878608L228.022809 696.222745l0 90.240257L450.644095 786.463002l0 178.941462 110.494557 0L561.138652 786.464025l214.750015 0 0-90.24128L561.138652 696.222745 561.138652 573.34516l214.750015 0 0-89.184205L591.569732 484.160955 825.473993 80.676437z" p-id="2577" fill="#2c2c2c"></path></svg>