<?xml version="1.0" standalone="no"?><!DOCTYPE svg PUBLIC "-//W3C//DTD SVG 1.1//EN" "http://www.w3.org/Graphics/SVG/1.1/DTD/svg11.dtd"><svg t="1480926940248" class="icon" style="" viewBox="0 0 1024 1024" version="1.1" xmlns="http://www.w3.org/2000/svg" p-id="15839" xmlns:xlink="http://www.w3.org/1999/xlink" width="48" height="48"><defs><style type="text/css"></style></defs><path d="M850.438059 599.390349c0 0-12.951987-49.851385-21.934568-70.393233 8.721639-8.195659 13.160741-13.488199 13.004175-14.110369-3.961218-9.41851-165.280324-50.300616-361.738741-50.300616-109.188818 0-229.225705 12.625552-339.146187 50.300616 0 0 6.449899 7.391341 19.219737 18.753109-7.05058 10.815323-23.842011 37.115316-25.930579 65.750493C48.232514 629.736495 56.536644 682.259732 57.763588 704.150298c6.163373 108.182908 134.953621 119.388111 134.953621 119.388111s111.922069 171.806971 300.487725 171.806971c187.625238 0 292.183596-174.037778 292.183596-174.037778s138.584312-8.974395 143.41534-119.206986C932.85207 609.479125 850.438059 599.390349 850.438059 599.390349zM780.48894 745.643318l-39.638789 2.567475-20.455891 34.04949c-0.824785 1.372254-86.401836 137.2622-227.188302 137.2622-143.855362 0-236.239446-136.298246-236.956783-137.370671l-20.161179-30.948873-36.797068-3.200902c-0.63445-0.055259-63.463404-6.67605-65.823148-48.097438l-0.285502-4.485151c-0.24457-3.604084-0.61296-9.049097-0.525979-10.028401 0.044002-0.067538 5.063319-6.909363 26.571169-14.527878l46.701648-16.540721 3.605108-49.414433c0.265036-3.637854 2.415003-12.354376 13.82589-29.860075l4.40738-6.759961c0.222057-0.054235 0.464581-0.090051 0.687662-0.144286l22.316262 11.136641c57.879222 35.978423 122.347512 92.179422 240.512772 93.857645 120.694873 1.701758 191.821817-59.824527 252.668627-97.090269l15.655562-7.496741c0.99363 0.213871 2.082428 0.435928 3.048429 0.648776 4.325515 12.873192 10.220782 33.207309 14.397918 49.269124l12.984732 49.916876 51.184753 6.265704c8.503675 1.041726 12.483312 9.162684 11.82942 24.130583C851.273077 739.403197 780.608667 745.626945 780.48894 745.643318z" p-id="15840"></path><path d="M417.144632 235.860822c0 12.217253 8.919137 53.096289 62.303998 73.043596l14.762215 4.824889 13.779841-5.058203c50.877761-20.051685 57.624419-66.042135 58.322313-75.145467l0.64673-34.317597L417.144632 199.208041 417.144632 235.860822z" p-id="15841"></path><path d="M984.729601 242.739487c-3.134387-12.974499-13.000082-23.650653-26.891464-29.243021-2.460028-1.046842-11.972683-5.338588-26.620287-11.978822C577.872267 41.9883 523.30651 28.606525 499.17081 28.606525l-0.026606 0C451.711915 29.192879 208.798467 144.177704 66.151629 213.775828c-21.918195 12.412704-36.7019 38.694277-22.566972 65.027016 3.702322 6.768147 11.513218 18.261922 25.025976 37.954427 11.919471 17.443277 25.458835 37.186947 32.782637 49.522903 8.589632 14.432711 16.882506 40.132022 20.983917 54.425563 0.166799 0.578168 0.356111 1.220804 0.50756 1.760087 0.50756 1.804089 0.955768 3.440355 1.292436 4.729721l9.05319 34.684964 37.053917-9.832949c0.071631-0.01842 0.724501-0.186242 1.543146-0.39295 0.12382-0.031722 0.2415-0.061398 0.381693-0.096191 1.035586-0.258896 2.557242-0.632403 4.408403-1.075495 0.251733-0.060375 0.551562-0.132006 0.818645-0.195451 30.321586-7.218402 154.952094-34.32783 316.327482-34.32783 111.75527 0 218.159672 12.821003 316.291666 38.105876l40.917922 10.523681 5.595438-38.950104c0.400113-2.783393 1.230014-5.752004 2.237971-8.78406 0.278339-0.836041 0.594541-1.684362 0.913812-2.535753 0.939395-2.508123 2.034333-5.066389 3.294023-7.670703 0.303922-0.627287 0.556679-1.240247 0.87595-1.871627 10.829649-21.38096 30.829146-44.857651 44.677549-58.0583l64.324004-64.439638C976.893122 278.062993 989.568816 262.738983 984.729601 242.739487zM854.905814 293.149597c-23.552415 22.429849-45.681412 50.420343-59.632145 79.422887-94.877881-21.509896-196.080817-32.437783-301.507962-32.437783-85.24243 0-166.904311 7.043417-242.374166 18.815531-24.031323 3.748371-45.840024 7.762801-65.439408 11.831466-5.684466-15.866363-12.209066-31.194466-19.399839-43.277666-5.901407-9.940396-13.862729-22.01541-26.627451-40.765449-0.560772-0.824785-0.560772-0.824785-1.121544-1.647523-1.981121-2.905166-3.855818-5.650697-7.585769-11.109012-1.391696-2.028193-2.63092-3.838422-3.858888-5.632277C312.180022 178.883133 478.183823 105.522312 499.614925 104.503099c0.865717 0.161682 3.134387 0.644683 7.990998 1.941212 12.214183 3.2623 30.735002 9.540284 57.025785 19.6045 62.919005 24.087605 165.528987 68.051909 319.779094 137.542586L854.905814 293.149597z" p-id="15842"></path></svg>